<svg width="398" height="398" viewBox="0 0 398 398" fill="none" xmlns="http://www.w3.org/2000/svg">
<path d="M60 67.0034H133.337L160.138 94.4747V123.956L163.488 128.646" stroke="white" stroke-width="9"/>
<path d="M85.0942 130.657L105.195 150.758H128.646L136.017 154.778" stroke="white" stroke-width="9"/>
<path d="M125.296 184.259H80.4039L21.5 126" stroke="white" stroke-width="9"/>
<path d="M128.646 215.751H70.3535" stroke="white" stroke-width="9"/>
<path d="M39.5 300L91.7943 247.912H134.676L142.717 243.892" stroke="white" stroke-width="9"/>
<path d="M59.6328 325.636H134.677L162.148 298.165V268.978L166.168 262.653" stroke="white" stroke-width="9"/>
<path d="M187.61 268.684L187.61 332.337" stroke="white" stroke-width="9"/>
<path d="M211.731 268.684V313.576L273.5 373" stroke="white" stroke-width="9"/>
<path d="M282.754 307.546H255.283L237.192 290.125V270.024L232.502 262.653" stroke="white" stroke-width="9"/>
<path d="M358.5 300.5L304.195 246.572H261.313L255.953 243.892" stroke="white" stroke-width="9"/>
<path d="M270.693 215.751L340.377 215.751L380 255" stroke="white" stroke-width="9"/>
<path d="M272.704 184.929H384.599" stroke="white" stroke-width="9"/>
<path d="M316.926 136.017L302.855 149.418H266.673L260.643 154.108" stroke="white" stroke-width="9"/>
<path d="M328.986 62.3131H267.343L236.522 93.8047V124.626L233.842 129.987" stroke="white" stroke-width="9"/>
<path d="M210.39 67.6733L210.39 121.276" stroke="white" stroke-width="9"/>
<circle cx="199" cy="199" r="192.5" stroke="white" stroke-width="13"/>
<path d="M128 22L187.61 77.4478V121" stroke="white" stroke-width="9"/>
<circle cx="210.39" cy="49.5825" r="14.7609" stroke="white" stroke-width="8"/>
<circle cx="328.317" cy="123.286" r="14.7609" stroke="white" stroke-width="8"/>
<circle cx="76.384" cy="117.926" r="14.7609" stroke="white" stroke-width="8"/>
<circle cx="53.6023" cy="218.431" r="14.7609" stroke="white" stroke-width="8"/>
<circle cx="300.175" cy="308.215" r="14.7609" stroke="white" stroke-width="8"/>
<circle cx="187.609" cy="348.417" r="14.7609" stroke="white" stroke-width="8"/>
</svg>
